<?xml version="1.0" encoding="utf-8"?>
<!-- Generator: Adobe Illustrator 16.0.0, SVG Export Plug-In . SVG Version: 6.00 Build 0)  -->
<!DOCTYPE svg PUBLIC "-//W3C//DTD SVG 1.1//EN" "http://www.w3.org/Graphics/SVG/1.1/DTD/svg11.dtd">
<svg version="1.1" id="Layer_1" xmlns="http://www.w3.org/2000/svg" xmlns:xlink="http://www.w3.org/1999/xlink" x="0px" y="0px"
	 width="883.908px" height="304.598px" viewBox="0 0 883.908 304.598" enable-background="new 0 0 883.908 304.598"
	 xml:space="preserve">
<g>
	<path fill-rule="evenodd" clip-rule="evenodd" fill="#E6E6E5" d="M641.025,192.381c0,3.11,0,4.847,0,6.583
		c0,29.979-0.078,59.959,0.088,89.937c0.023,4.151-1.135,5.584-5.318,5.311c-5.141-0.338-10.336-0.325-15.479-0.003
		c-4.102,0.257-5.416-1.019-5.379-5.252c0.197-22.815,0.094-45.634,0.094-68.451c0-22.984,0.127-45.97-0.109-68.951
		c-0.047-4.534,1.344-5.849,5.664-5.481c4.135,0.353,8.385,0.529,12.471-0.031c5.953-0.815,9.453,1.755,12.672,6.43
		c17.592,25.536,35.4,50.922,53.141,76.354c3.414,4.893,6.84,9.778,10.334,14.612c0.707,0.98,1.76,1.711,3.809,3.652
		c0-3.204,0-4.935,0-6.664c0-29.646,0.068-59.293-0.08-88.938c-0.02-3.997,0.857-5.729,5.201-5.423
		c5.137,0.363,10.33,0.284,15.48,0.019c3.609-0.187,4.5,1.234,4.469,4.621c-0.145,15.154-0.063,30.312-0.063,45.468
		c0,30.812-0.084,61.624,0.098,92.435c0.025,4.338-1.027,6.2-5.537,5.575c-2.123-0.295-4.398-0.417-6.475,0.012
		c-10.334,2.128-15.922-3.037-21.455-11.267c-19.705-29.306-40.217-58.067-60.441-87.021
		C643.596,195.028,642.771,194.3,641.025,192.381z"/>
	<path fill-rule="evenodd" clip-rule="evenodd" fill="#E6E6E5" d="M505.959,43.897c-10.211,4.147-20.021,8.143-29.838,12.119
		c-38.289,15.508-76.576,31.019-114.871,46.509c-11.998,4.853-24.041,9.593-36.018,14.495c-4.441,1.818-8.5,1.326-12.199-1.536
		c-16.63-12.873-33.212-25.808-49.796-38.738c-0.37-0.288-0.562-0.805-1.292-1.892c9.396-3.2,17.338-9.868,28.398-3.408
		c8.943,5.223,19.09,8.467,28.89,12.078c2.419,0.892,5.823,0.468,8.339-0.491c13.773-5.25,27.412-10.854,42.693-16.977
		c-29.949-16.023-58.751-31.433-87.975-47.068c11.955-6.064,23.207-10.528,36.908-6.477c34.148,10.099,68.553,19.338,102.924,28.665
		c3.304,0.896,7.24,0.612,10.635-0.186c11.109-2.61,21.979-6.438,33.186-8.394c8.84-1.542,18.057-1.68,27.027,0.541
		C498.852,34.593,502.697,38.409,505.959,43.897z"/>
	<path fill-rule="evenodd" clip-rule="evenodd" fill="#E6E6E5" d="M776.006,220.269c0-22.823,0.092-45.647-0.084-68.471
		c-0.033-4.139,0.707-5.799,5.391-5.763c29.484,0.225,58.973,0.192,88.461,0.024c4.164-0.024,5.572,1.157,5.301,5.328
		c-0.336,5.143-0.328,10.339-0.002,15.483c0.26,4.118-1.043,5.411-5.264,5.369c-20.656-0.207-41.314,0.021-61.973-0.186
		c-4.406-0.045-6.195,0.89-5.947,5.718c0.416,8.142,0.342,16.33,0.018,24.48c-0.164,4.14,1.373,5.003,5.166,4.963
		c16.658-0.174,33.32,0.064,49.977-0.166c4.58-0.063,6.34,1.301,6.018,5.974c-0.342,4.975-0.26,9.999-0.02,14.985
		c0.191,3.96-1.371,5.226-5.25,5.192c-16.824-0.147-33.652,0.054-50.477-0.148c-4.033-0.048-5.582,0.921-5.414,5.225
		c0.328,8.317,0.326,16.665,0,24.982c-0.164,4.169,1.42,4.972,5.184,4.944c20.822-0.15,41.648,0.064,62.471-0.18
		c4.488-0.053,5.836,1.247,5.52,5.626c-0.371,5.138-0.322,10.337-0.01,15.482c0.238,3.948-1.057,5.107-5.039,5.083
		c-27.654-0.163-55.309-0.086-82.965-0.086c-11.061,0-11.061,0-11.061-10.888C776.006,262.251,776.006,241.26,776.006,220.269z"/>
	<path fill-rule="evenodd" clip-rule="evenodd" fill="#E6E6E5" d="M33.503,207.142c-5.436-8.688-9.416-17.088-15.25-23.899
		c-9.024-10.534-7.037-22.609-6.974-34.559c0.004-0.849,2.106-2.409,3.245-2.42c15.989-0.157,32.01-0.704,47.959,0.101
		c11.609,0.586,22.794,3.702,32.508,10.981c9.973,7.473,14.48,17.659,14.995,29.54c0.986,22.746-10.779,37.597-32.844,43.511
		c-11.456,3.07-23.011,2.897-34.603,2.63c-4.486-0.104-5.607,1.264-5.542,5.625c0.248,16.819-0.01,33.646,0.183,50.467
		c0.044,3.895-0.99,5.331-5.028,5.095c-5.645-0.33-11.326-0.198-16.984-0.037c-2.938,0.084-4.132-0.784-4.121-3.935
		c0.097-26.316,0.105-52.635-0.008-78.951c-0.014-3.36,1.185-4.316,4.368-4.204C21.044,207.284,26.692,207.142,33.503,207.142z
		 M42.948,172.105c0.752,1.838,0.999,2.799,1.497,3.602c5.072,8.172,10.156,16.337,15.294,24.467
		c4.995,7.901,5.805,8.24,14.956,3.864c5.239-2.505,9.14-6.159,9.507-12.797c0.398-7.195-2.329-12.116-8.613-15.34
		C65.439,170.693,54.565,172.49,42.948,172.105z"/>
	<path fill-rule="evenodd" clip-rule="evenodd" fill="#E6E6E5" d="M240.857,294.104c-9.5,0-17.625,0.098-25.742-0.119
		c-1.051-0.027-2.428-1.483-3.014-2.609c-1.371-2.642-2.82-5.391-3.395-8.265c-1.02-5.108-3.77-6.255-8.721-6.109
		c-13.143,0.386-26.307,0.245-39.457,0.057c-3.61-0.051-5.357,1.229-6.521,4.606c-4.303,12.5-4.4,12.466-17.496,12.466
		c-4.604,0-9.207,0-14.78,0c19.69-50.866,39.042-100.859,58.393-150.852c0.621-0.095,1.242-0.188,1.863-0.282
		C201.453,192.96,220.918,242.923,240.857,294.104z M197.547,253.746c-5.314-15.181-10.439-29.817-15.564-44.455
		c-0.574,0.042-1.148,0.084-1.722,0.126c-5.13,14.567-10.259,29.134-15.609,44.329C175.877,253.746,186.223,253.746,197.547,253.746
		z"/>
	<path fill-rule="evenodd" clip-rule="evenodd" fill="#E6E6E5" d="M399.691,268.133c14.365,0,27.664-0.028,40.962,0.01
		c8.342,0.023,7.324-0.9,7.387,7.549c0.037,4.997,0.194,10.008-0.135,14.984c-0.08,1.206-1.862,3.295-2.868,3.298
		c-27.309,0.095-54.617-0.029-81.925-0.129c-0.144,0-0.287-0.158-1.275-0.738c16.02-39.9,32.098-79.945,48.564-120.96
		c-2.643,0-4.384,0-6.124,0c-12.662,0-25.324-0.089-37.984,0.06c-3.254,0.038-4.419-0.984-4.303-4.277
		c0.21-5.99,0.104-11.994,0.038-17.99c-0.024-2.281,0.329-3.82,3.19-3.814c27.302,0.056,54.604,0.033,83.182,0.033
		C432.114,186.939,416.12,226.993,399.691,268.133z"/>
	<path fill-rule="evenodd" clip-rule="evenodd" fill="#E6E6E5" d="M527.078,254.136c-29.939,0.639-55.951-25.477-55.238-56.337
		c0.65-28.182,25.02-54.806,56.307-53.68c30.252,1.089,53.346,23.968,53.545,54.557
		C581.895,230.053,558.197,253.756,527.078,254.136z M526.443,228.144c16.125,1.367,30.021-14.064,29.68-28.812
		c-0.377-16.224-12.631-28.437-28.283-29.396c-15.955-0.979-30.6,12.484-30.539,29.262
		C497.363,216.923,513.037,229.677,526.443,228.144z"/>
	<path fill-rule="evenodd" clip-rule="evenodd" fill="#E6E6E5" d="M284.375,118.153c-1.762,0-3.523,0-5.287,0
		c-87.258,0-174.518-0.048-261.776,0.12c-5.101,0.01-6.773-1.283-6.308-6.367c0.453-4.954,0.205-9.985,0.059-14.977
		c-0.081-2.765,0.866-4.08,3.721-3.784c0.824,0.085,1.665,0.011,2.497,0.011c77.434,0,154.869-0.016,232.303,0.073
		c2.338,0.002,5.145,0.452,6.934,1.774c9.563,7.073,18.871,14.49,28.268,21.788C284.647,117.245,284.512,117.698,284.375,118.153z"
		/>
	<path fill-rule="evenodd" clip-rule="evenodd" fill="#E6E6E5" d="M261.07,219.988c0-22.65,0.146-45.304-0.115-67.952
		c-0.058-4.929,1.461-6.354,6.188-5.976c4.965,0.397,10.004,0.343,14.979,0.01c4.039-0.271,5.059,1.198,5.027,5.091
		c-0.17,21.483-0.082,42.97-0.082,64.455c0,15.823,0.107,31.646-0.076,47.467c-0.045,3.826,0.888,5.215,4.982,5.146
		c14.485-0.245,28.982,0.117,43.465-0.215c4.811-0.11,5.988,1.528,5.703,5.956c-0.342,5.308-0.18,10.657-0.041,15.983
		c0.074,2.809-0.545,4.247-3.815,4.233c-24.149-0.105-48.3-0.122-72.45,0.009c-3.819,0.021-3.793-2.037-3.787-4.754
		C261.088,266.289,261.07,243.139,261.07,219.988z"/>
	<path fill-rule="evenodd" clip-rule="evenodd" fill="#E6E6E5" d="M525.801,294.13c-14.646,0-29.292-0.103-43.936,0.073
		c-3.604,0.044-5.104-0.817-4.9-4.7c0.303-5.809,0.162-11.647,0.043-17.469c-0.053-2.628,0.592-3.949,3.584-3.942
		c30.287,0.075,60.576,0.074,90.865,0.001c2.963-0.008,3.666,1.26,3.611,3.916c-0.123,5.988-0.197,11.987,0.023,17.97
		c0.125,3.365-1.184,4.235-4.359,4.208C555.756,294.058,540.777,294.129,525.801,294.13z"/>
	<path fill-rule="evenodd" clip-rule="evenodd" fill="none" d="M526.443,228.144c-13.406,1.533-29.08-11.221-29.143-28.946
		c-0.061-16.777,14.584-30.24,30.539-29.262c15.652,0.96,27.906,13.173,28.283,29.396
		C556.465,214.079,542.568,229.511,526.443,228.144z"/>
</g>
</svg>
