<?xml version="1.0" encoding="utf-8"?>
<!-- Generator: Adobe Illustrator 16.0.0, SVG Export Plug-In . SVG Version: 6.00 Build 0)  -->
<!DOCTYPE svg PUBLIC "-//W3C//DTD SVG 1.1//EN" "http://www.w3.org/Graphics/SVG/1.1/DTD/svg11.dtd">
<svg version="1.1" id="Layer_1" xmlns="http://www.w3.org/2000/svg" xmlns:xlink="http://www.w3.org/1999/xlink" x="0px" y="0px"
	 width="883.908px" height="304.598px" viewBox="0 0 883.908 304.598" enable-background="new 0 0 883.908 304.598"
	 xml:space="preserve">
<g>
	<path fill-rule="evenodd" clip-rule="evenodd" fill="#D13B65" d="M738.451,292.822c-8.205,0.283-16.412,0.73-24.617,0.674
		c-1.217-0.008-2.6-2.263-3.6-3.691c-21.643-30.911-43.242-61.853-64.855-92.785c-0.76-1.09-1.561-2.15-2.342-3.226
		c-0.502-0.46-1.002-0.919-1.504-1.378c-0.029,0.459-0.061,0.92-0.092,1.379c0,33.066,0,66.132,0,99.737c-8.65,0-16.883,0-25.115,0
		c0-49.192-0.002-98.385-0.002-147.577c7.324-0.068,14.656-0.331,21.967-0.059c1.723,0.064,3.934,1.542,4.984,3.03
		c20.83,29.502,41.518,59.105,62.246,88.679c1.908,2.723,3.889,5.395,5.836,8.092c0.514,0.471,1.029,0.941,1.543,1.413
		c0.023-0.474,0.049-0.946,0.074-1.419c0-33.1,0-66.199,0-100.341c8.873,0.458,17.176,0.887,25.477,1.314
		c0.035,0.396,0.07,0.792,0.105,1.187c0,47.928,0,95.855,0,143.783C738.521,292.03,738.486,292.425,738.451,292.822z"/>
	<path fill-rule="evenodd" clip-rule="evenodd" fill="#D23C65" d="M261.57,74.568c5.092-2.085,9.25-4.566,13.711-5.382
		c3.951-0.723,8.565-0.481,12.319,0.889c10.915,3.984,21.517,8.819,32.315,13.135c1.667,0.666,3.979,1.016,5.561,0.401
		c14.24-5.551,28.385-11.347,42.548-17.095c0.427-0.173,0.75-0.604,1.562-1.286c-29.188-15.616-58.116-31.093-87.771-46.958
		c7.286-2.951,13.642-6.551,20.448-7.936c4.844-0.985,10.437,0.466,15.453,1.769c23.859,6.195,47.657,12.626,71.429,19.15
		c12.126,3.328,24.142,7.062,36.236,10.512c1.229,0.351,2.722,0.258,3.982-0.062c12.742-3.238,25.314-7.509,38.238-9.54
		c8.629-1.355,17.797,0.028,26.637,0.985c5.16,0.559,8.857,4.544,11.879,10.351c-1.635,0.731-3.229,1.506-4.869,2.168
		c-57.616,23.271-115.268,46.453-172.813,69.897c-6.938,2.828-12.248,2.395-18.198-2.478
		c-14.807-12.126-30.108-23.648-45.199-35.428C264.025,76.871,263.113,75.952,261.57,74.568z"/>
	<path fill-rule="evenodd" clip-rule="evenodd" fill="#D13A65" d="M802.357,172.763c0,11.109,0,22.219,0,34.178
		c19.979,0,39.846,0,59.715,0c0,8.534,0,17.069,0,25.604c-19.748,0-39.496,0-59.715,0c0,11.719,0,22.949,0,34.178
		c0.283,0.262,0.566,0.523,0.852,0.785c23.793,0,47.586,0,71.674,0c0,8.82,0,17.08,0,25.785c-32.629,0-65.324,0-98.354,0
		c0-48.918,0-97.824,0-147.136c32.672,0,65.365,0,98.357,0c0,8.376,0,16.636,0,25.823c-23.855,0-47.768,0-71.678-0.001
		C802.923,172.24,802.64,172.501,802.357,172.763z"/>
	<path fill-rule="evenodd" clip-rule="evenodd" fill="#D13B65" d="M37.289,293.568c-8.961,0-17.086,0-25.605,0
		c0-28.848,0-57.529,0-86.77c7.133,0,14.165,0,22.09,0c-6.881-10.869-13.42-20.834-19.516-31.063
		c-1.672-2.806-2.619-6.363-2.84-9.647c-0.435-6.458-0.128-12.967-0.128-19.971c1.61-0.132,3.026-0.348,4.444-0.351
		c14.322-0.025,28.661-0.428,42.964,0.102c14.03,0.519,27.586,3.229,38.782,12.813c19.077,16.332,19.054,57.617-13.521,68.979
		c-7.973,2.78-16.625,3.956-25.073,4.921c-6.887,0.788-13.936,0.16-21.596,0.16c0,10.326,0,20.413,0,30.5
		C37.289,273.195,37.289,283.148,37.289,293.568z M43.031,172.613c6.216,9.896,11.918,19.009,17.656,28.098
		c4.3,6.811,4.341,6.849,11.952,3.873c6.393-2.499,11.436-6.268,11.675-13.922c0.321-10.271-7.415-17.92-18.251-18.034
		C58.746,172.55,51.427,172.613,43.031,172.613z"/>
	<path fill-rule="evenodd" clip-rule="evenodd" fill="#D23C65" d="M241.054,293.734c-9.292,0-17.434,0.084-25.57-0.099
		c-1.113-0.024-2.239-1.329-3.269-2.154c-0.337-0.271-0.385-0.898-0.571-1.36c-1.733-4.297-2.329-10.326-5.512-12.418
		c-3.421-2.249-9.27-0.91-14.062-0.942c-10.657-0.071-21.318,0.088-31.972-0.093c-2.973-0.051-4.513,0.798-5.405,3.702
		c-1.359,4.428-3.139,8.727-4.76,13.138c-9.093,0-18.038,0-27.986,0c19.632-50.66,39.055-100.785,58.479-150.909
		c0.582-0.053,1.164-0.105,1.746-0.158C201.665,192.525,221.157,242.609,241.054,293.734z M165.154,252.698
		c0.038,0.352,0.075,0.702,0.113,1.054c0.313,0.112,0.625,0.225,0.938,0.337c10.043-0.001,20.085-0.001,30.129-0.001
		c0.345-0.094,0.691-0.189,1.036-0.283c0.051-0.383,0.102-0.766,0.153-1.148c-5.164-14.711-10.327-29.422-15.491-44.133
		c-0.497,0.063-0.993,0.123-1.49,0.186C175.413,223.372,170.283,238.035,165.154,252.698z"/>
	<path fill-rule="evenodd" clip-rule="evenodd" fill="#D13B65" d="M401.297,267.49c15.456,0,30.912,0,46.698,0
		c0,8.884,0,17.266,0,25.947c-28.514,0-56.906,0-86.102,0c0.766-2.108,1.36-3.904,2.064-5.656
		c14.725-36.674,29.464-73.343,44.185-110.018c0.492-1.227,0.826-2.516,1.232-3.776c-0.063-0.663-0.127-1.325-0.19-1.989
		c-15.615-0.105-31.23-0.211-46.845-0.316c-0.143-0.339-0.286-0.678-0.429-1.016c-0.009-7.605-0.017-15.211-0.025-22.817
		c0.036-0.394,0.071-0.788,0.106-1.182c1.051-0.305,2.101-0.874,3.151-0.875c26.77-0.048,53.539-0.04,80.307-0.02
		c0.787,0,1.572,0.231,3.018,0.457c-3.326,8.437-6.492,16.56-9.725,24.657c-12.169,30.467-24.362,60.924-36.533,91.39
		c-0.428,1.069-0.711,2.195-1.062,3.295C401.199,266.209,401.248,266.849,401.297,267.49z"/>
	<path fill-rule="evenodd" clip-rule="evenodd" fill="#D23B65" d="M581.222,198.59c2.996,25.897-21.699,55.201-54.344,55.378
		c-29.928,0.162-55.027-26.615-55.025-55.291c0.002-26.968,22.711-55.044,55.166-55.033
		C560.679,143.656,584.08,173.724,581.222,198.59z M556.222,198.908c0.057-15.943-12.484-28.478-27.752-29.318
		c-17.426-0.961-30.604,12.886-31.133,29.223c-0.484,14.877,14.75,30.66,29.014,29.785
		C544.042,227.511,555.789,215.695,556.222,198.908z"/>
	<path fill-rule="evenodd" clip-rule="evenodd" fill="#D13B65" d="M11.482,117.535c0-8.354,0-16.288,0-24.776
		c1.957,0,3.731,0,5.506,0c77.604,0,155.207-0.035,232.811,0.132c3.001,0.007,6.465,1.318,8.915,3.112
		c9.186,6.73,18.041,13.915,27.793,21.533C194.264,117.535,103.103,117.535,11.482,117.535z"/>
	<path fill-rule="evenodd" clip-rule="evenodd" fill="#D13A65" d="M288.272,267.507c17.451,0,34.901,0,52.663,0
		c0,8.908,0,17.279,0,25.939c-26.461,0-52.69,0-79.298,0c0-49.074,0-98.07,0-147.381c8.353,0,16.596,0,25.783,0
		c0,40.236,0,80.446,0,120.656C287.705,266.984,287.988,267.246,288.272,267.507z"/>
	<path fill-rule="evenodd" clip-rule="evenodd" fill="#D13A65" d="M574.941,267.742c0,8.94,0,17.187,0,25.753
		c-1.881,0.088-3.5,0.229-5.121,0.229c-28.994,0.014-57.988-0.114-86.982,0.131c-4.85,0.042-5.959-1.56-5.686-5.971
		c0.34-5.479,0.145-10.994,0.053-16.492c-0.041-2.404,0.568-3.692,3.324-3.688C511.833,267.762,543.138,267.742,574.941,267.742z"/>
	<path fill-rule="evenodd" clip-rule="evenodd" fill="#DD7E95" d="M616.324,145.955c0,49.192,0.002,98.384,0.002,147.577
		c-0.371-1.509-1.063-3.016-1.064-4.524c-0.059-46.176-0.059-92.352,0-138.528C615.261,148.971,615.955,147.463,616.324,145.955z"/>
	<path fill-rule="evenodd" clip-rule="evenodd" fill="#DE8096" d="M862.072,232.544c0-8.534,0-17.069,0-25.604
		c0.373,1.646,1.111,3.304,1.059,4.937C862.906,218.771,862.447,225.657,862.072,232.544z"/>
	<path fill-rule="evenodd" clip-rule="evenodd" fill="#F4D8DE" d="M641.441,193.794c0.031-0.459,0.063-0.92,0.092-1.379
		c0.502,0.459,1.002,0.918,1.504,1.378C642.505,193.794,641.972,193.794,641.441,193.794z"/>
	<path fill-rule="evenodd" clip-rule="evenodd" fill="#F4D9DE" d="M712.974,245.691c-0.025,0.473-0.051,0.945-0.074,1.419
		c-0.514-0.472-1.029-0.942-1.543-1.413C711.896,245.695,712.435,245.693,712.974,245.691z"/>
	<path fill-rule="evenodd" clip-rule="evenodd" fill="#F4D9DE" d="M409.185,171.998c0.063,0.664,0.127,1.326,0.19,1.989
		C409.312,173.324,409.249,172.662,409.185,171.998z"/>
	<path fill-rule="evenodd" clip-rule="evenodd" fill="#F4D9DE" d="M401.297,267.49c-0.05-0.641-0.099-1.28-0.148-1.92
		C401.198,266.209,401.248,266.849,401.297,267.49z"/>
	<path fill-rule="evenodd" clip-rule="evenodd" fill="#EAB1BE" d="M361.993,146.667c-0.035,0.394-0.07,0.788-0.106,1.182
		C361.922,147.455,361.958,147.061,361.993,146.667z"/>
	<path fill-rule="evenodd" clip-rule="evenodd" fill="#E9B0BD" d="M738.556,147.851c-0.035-0.396-0.07-0.791-0.105-1.187
		C738.486,147.06,738.521,147.456,738.556,147.851z"/>
	<path fill-rule="evenodd" clip-rule="evenodd" fill="#EAB1BE" d="M361.912,170.666c0.143,0.338,0.286,0.677,0.429,1.016
		C362.198,171.342,362.054,171.003,361.912,170.666z"/>
	<path fill-rule="evenodd" clip-rule="evenodd" fill="#F4D9DF" d="M802.357,172.763c0.283-0.262,0.566-0.523,0.852-0.785
		C802.923,172.24,802.64,172.501,802.357,172.763z"/>
	<path fill-rule="evenodd" clip-rule="evenodd" fill="#F4D9DF" d="M288.272,267.507c-0.284-0.262-0.568-0.523-0.852-0.785
		C287.705,266.984,287.989,267.246,288.272,267.507z"/>
	<path fill-rule="evenodd" clip-rule="evenodd" fill="#F4D9DF" d="M803.208,267.507c-0.285-0.262-0.568-0.523-0.852-0.785
		C802.64,266.984,802.923,267.246,803.208,267.507z"/>
	<path fill-rule="evenodd" clip-rule="evenodd" fill="#E9B0BD" d="M738.451,292.822c0.035-0.396,0.07-0.792,0.105-1.188
		C738.521,292.03,738.486,292.425,738.451,292.822z"/>
	<path fill-rule="evenodd" clip-rule="evenodd" fill="#DD7C93" d="M166.205,254.088c10.043-0.001,20.085-0.001,30.128-0.001
		C186.291,254.087,176.248,254.087,166.205,254.088z"/>
	<path fill-rule="evenodd" clip-rule="evenodd" fill="#DD7C93" d="M165.154,252.698c0.038,0.352,0.075,0.702,0.113,1.054
		C165.229,253.4,165.192,253.049,165.154,252.698z"/>
	<path fill-rule="evenodd" clip-rule="evenodd" fill="#DD7C93" d="M197.37,253.804c0.051-0.383,0.102-0.766,0.153-1.148
		C197.472,253.039,197.421,253.421,197.37,253.804z"/>
	<path fill-rule="evenodd" clip-rule="evenodd" fill="none" d="M556.222,198.908c-0.434,16.787-12.18,28.604-29.871,29.689
		c-14.264,0.875-29.498-14.908-29.014-29.785c0.529-16.337,13.707-30.184,31.133-29.223
		C543.738,170.43,556.279,182.964,556.222,198.908z"/>
</g>
</svg>
